<?xml version="1.0" encoding="UTF-8" standalone="no"?>
<svg
   xmlns:dc="http://purl.org/dc/elements/1.1/"
   xmlns:cc="http://creativecommons.org/ns#"
   xmlns:rdf="http://www.w3.org/1999/02/22-rdf-syntax-ns#"
   xmlns:svg="http://www.w3.org/2000/svg"
   xmlns="http://www.w3.org/2000/svg"
   xmlns:xlink="http://www.w3.org/1999/xlink"
   xmlns:sodipodi="http://sodipodi.sourceforge.net/DTD/sodipodi-0.dtd"
   xmlns:inkscape="http://www.inkscape.org/namespaces/inkscape"
   sodipodi:docname="logoBad.svg"
   inkscape:version="1.0rc1 (09960d6f05, 2020-04-09)"
   id="svg16"
   version="1.1"
   viewBox="0 0 444.49999 152.4"
   height="576"
   width="1680">
  <defs
     id="defs10">
    <clipPath
       id="clipPath134"
       clipPathUnits="userSpaceOnUse">
      <use
         height="100%"
         width="100%"
         id="use136"
         xlink:href="#g130"
         y="0"
         x="0" />
    </clipPath>
  </defs>
  <sodipodi:namedview
     inkscape:document-rotation="0"
     inkscape:window-maximized="1"
     inkscape:window-y="-9"
     inkscape:window-x="-9"
     inkscape:window-height="1001"
     inkscape:window-width="1920"
     units="px"
     showgrid="false"
     inkscape:current-layer="g146"
     inkscape:document-units="mm"
     inkscape:cy="227.80149"
     inkscape:cx="911.54773"
     inkscape:zoom="0.49497475"
     inkscape:pageshadow="2"
     inkscape:pageopacity="0.0"
     borderopacity="1.0"
     bordercolor="#666666"
     pagecolor="#ffffff"
     id="base" />
  <metadata
     id="metadata13">
    <rdf:RDF>
      <cc:Work
         rdf:about="">
        <dc:format>image/svg+xml</dc:format>
        <dc:type
           rdf:resource="http://purl.org/dc/dcmitype/StillImage" />
        <dc:title />
      </cc:Work>
    </rdf:RDF>
  </metadata>
  <g
     transform="translate(0,-144.59998)"
     id="layer1"
     inkscape:groupmode="layer"
     inkscape:label="Layer 1">
    <g
       style="fill:#000000;stroke:none"
       transform="matrix(0.03058667,0,0,-0.0290378,13.246848,247.8878)"
       id="g146">
      <g
         transform="matrix(1.8805381,0,0,1.8805381,532.40558,-3387.5169)"
         clip-path="url(#clipPath134)"
         id="g132">
        <g
           id="g130"
           inkscape:label="Clip">
          <path
             id="path28"
             d="m 788.40759,3481.1353 c -21,-9 -48,-53 -38,-62 3,-3 12,8 21,24 8,16 23,33 33,36 14,6 13,2 -5,-17 -13,-13 -25,-42 -28,-63 -5,-39 -5,-39 10,-14 8,14 15,33 16,42 0,33 72,52 98,26 17,-17 14,-77 -7,-123 -22,-49 -38,-63 -71,-61 -21,2 -28,12 -47,67 -21,59 -22,61 -23,28 0,-45 36,-100 74,-114 25,-9 31,-6 61,26 41,45 63,126 45,168 -18,44 -84,62 -139,37 z"
             inkscape:connector-curvature="0" />
          <path
             id="path30"
             d="m 142.40759,3358.1353 c -103.999998,-14 -230.999998,-71 -285,-128 -19,-21 -30,-36 -25,-33 6,2 30,14 55,25 25.000002,12 84.000002,27 131.000002,34 212.999998,31 380.999998,-61 468.999998,-256 46,-102 46,-107 -5,-144 -25,-18 -45,-36 -45,-39 0,-4 -18,-28 -40,-52 -22,-25 -47,-57 -56,-73 -14,-26 -55,-147 -49,-147 1,0 34,12 71,26 38,14 96,32 129,39 33,7 48,14 34,14 -37,1 -140,-18 -166,-31 -32,-16 -41,-2 -20,33 9,17 17,37 17,45 0,8 5,14 10,14 6,0 10,5 10,11 0,17 114,143 155,170 34,23 47,43 23,34 -9,-3 -13,5 -14,23 -1,43 -59,152 -112,212 -57,66 -149,126 -205,135 -23,4 -48,12 -55,18 -7,6 -39,7 -78.999998,4 -85.9999996,-8 -72,10 17.999998,23 62,9 139,4 139,-9 0,-3 17,-7 37,-8 34,-2 55,-9 105,-34 10,-5 26,-9 36,-9 10,0 45,-13 78,-29 197,-97 378,-111 529.00001,-41 82,38 144,61 179,67 23,3 43,10 46,14 11,16 168,22 230,9 66,-14 80,-30 24,-30 -25,0 -33,3 -28,13 6,9 4,9 -8,-1 -11,-9 -18,-10 -23,-2 -4,7 -12,7 -25,0 -10,-5 -32,-10 -49,-10 -37,0 -121,-32 -163,-63 -49,-34 -73,-62 -119,-139 -38,-62 -45,-69 -68,-65 -129.00001,25 -165.00001,28 -233.00001,23 -86,-6 -161,-27 -198,-56 l -25,-20 50,15 c 164,50 312,50 435.00001,1 11,-4 23,12 44,60 60,135 165,210 308,221 89,7 157,-10 241,-61 31,-19 57,-32 57,-30 0,3 -14,25 -30,49 -54,79 -134,125 -251,145 -91,16 -190,0 -354,-57 -71,-24 -150.00001,-51 -175.00001,-59 l -45,-14 50,6 c 28,3 102.00001,23 167.00001,45 159,53 231,69 313,67 l 70,-1 -91,-8 c -89,-8 -174,-32 -384.00001,-108 -144,-52 -218,-43 -467,53 -169,65 -205,75 -313,86 l -85,9 95,-4 c 100,-4 145,-16 322,-83 99,-38 252,-71 266,-58 3,3 -3,6 -13,6 -11,0 -112,31 -225,70 -233,79 -318,96 -415,83 z m 1352.00001,-59 c -3,-3 -12,-4 -19,-1 -8,3 -5,6 6,6 11,1 17,-2 13,-5 z m 88,-73 c -6,-5 -25,10 -25,20 0,5 6,4 14,-3 8,-7 12,-15 11,-17 z"
             inkscape:connector-curvature="0" />
          <path
             id="path32"
             d="m 1537.4076,3345.1353 c 8,-5 21,-10 28,-10 47,0 242,-131 242,-162 0,-6 -7,-5 -17,3 -16,13 -17,12 -5,-3 8,-10 19,-16 25,-15 17,3 75,-100 86,-155 41,-188 -46,-368 -205,-427 -82,-31 -223,-40 -509,-32 l -260.00001,8 -110,-36 c -60,-19 -103,-36 -95,-38 8,-1 105,-4 215,-6 193.00001,-5 375.00001,-27 375.00001,-47 0,-16 -92,-52 -148,-59 -102,-11 -116,-1 -92,66 l 10,28 -18,-24 c -14,-17 -18,-38 -17,-81 1,-53 5,-61 40,-94 34,-32 42,-36 74,-30 20,4 44,11 53,16 30,15 63,-11 65,-52 6,-82 4,-99 -12,-123 -9,-15 -15,-32 -12,-39 2,-7 1,-22 -3,-33 -16,-45 -21,-77 -10,-70 5,3 10,14 10,24 0,9 24,54 54,99 30,45 63,110 75,144 22,70 37,158 24,145 -4,-5 -9,-13 -9,-18 -1,-5 -2,-10 -4,-11 -1,-2 -4,-16 -6,-33 -4,-28 -14,-57 -35,-97 -5,-10 -9,-25 -9,-33 0,-8 -4,-15 -8,-15 -5,0 -19,-26 -32,-57 -13,-31 -26,-51 -28,-43 -3,7 3,28 13,46 13,25 16,42 9,71 -4,21 -8,51 -8,67 -1,18 -9,33 -21,40 -11,6 -23,15 -26,20 -4,4 -17,2 -30,-5 -45,-24 -84,-20 -114,11 -31,32 -28,66 5,57 29,-7 155,19 186,39 15,10 41,17 58,16 28,-1 29,0 9,8 -13,5 -23,14 -23,19 0,5 -18,16 -41,25 -41,17 -68,22 -149,30 -152.00001,16 -223.00001,26 -228.00001,31 -4,3 11,5 33,5 22,-1 72.00001,2 110.00001,7 39,4 115,6 170,3 171,-10 355,-3 421,14 172,45 268,162 282,342 6,76 9,84 19,63 31,-66 48,-176 47,-314 0,-131 -2,-146 -31,-227 -17,-48 -52,-126 -78,-175 -25,-48 -39,-79 -30,-68 29,36 124,238 140,300 38,145 28,327 -26,490 -50,149 -130,263 -229,328 -62,40 -11,24 61,-19 88,-53 171,-149 223,-257 62,-129 80,-207 80,-352 0,-104 -3,-132 -27,-206 -15,-47 -34,-94 -42,-105 -8,-10 -15,-24 -15,-31 0,-31 -115,-178 -214,-276 -102,-101 -174,-160 -136,-111 8,10 -8,-1 -36,-26 -28,-25 -106,-85 -173,-134 -141,-102 -361,-284 -361,-298 0,-5 -4,-6 -10,-3 -5,3 -10,1 -10,-4 0,-17 -80.00001,-95 -88.00001,-86 -4,4 -1,10 6,12 6.00001,3 12.00001,10 12.00001,16 0,29 97,142 282,328 203,205 279,321 294,452 5,45 3,63 -16,100 -26,51 -74,102 -105,109 -19,5 -21,0 -23,-61 -3,-82 -20,-167 -35,-183 -7,-7 -13,-21 -13,-30 -3,-29 -96,-160 -127,-177 -17,-9 -37,-24 -46,-33 -8,-10 -19,-18 -24,-18 -14,0 -36,-27 -29,-35 4,-5 2,-5 -4,-2 -7,4 -32,-2 -57,-13 -25,-11 -56,-21 -70,-22 -14,-1 -23,-6 -21,-10 3,-5 17,-5 32,-2 l 27,7 -27,-26 c -16,-14 -28,-36 -28,-49 0,-34 -11,-68 -21.00001,-68 -5,0 -9,20 -9,44 0,31 -5,46 -16,50 -23,9 -29,8 -50,-12 -17,-15 -19,-33 -21,-141 -1,-69 -6,-128 -12,-134 -7,-7 -12,-2 -15,14 -36,162 -60,252 -72,264 -16,15 -66,31 -124,39 -49,6 -81,17 -75,26 2,4 -7,12 -21,19 -20,9 -24,9 -19,-1 4,-7 -2,-4 -12,8 -10,11 -34,32 -53,46 -128,93 -193,196 -236,373 l -7,30 -7,-25 c -3,-14 -2,-28 3,-31 5,-4 6,-17 2,-30 -5,-19 -4,-21 5,-9 9,12 10,9 5,-13 -4,-21 -3,-27 6,-21 9,5 10,2 6,-10 -9,-22 39,-116 93,-185 80,-101 262,-210 328,-195 19,4 23,3 13,-4 -10,-7 0,-12 37,-17 l 50,-7 21,-77 c 33,-122 43,-189 45,-288 0,-51 4,-89 8,-85 25,25 68,282 68,405 0,44 3,57 15,57 13,0 15,-22 16,-132 l 1,-133 29,85 c 16.00001,47 37.00001,112 45.00001,145 l 16,60 72,34 c 51,25 92,55 146,110 116,117 179,257 180,401 v 55 l 44,-46 c 94,-98 84,-206 -35,-381 -24,-35 -122,-144 -219,-243 -173,-177 -217,-230 -272.00001,-330 -33,-59 -37,-53 -7,8 43.00001,85 116.00001,176 269.00001,332 160,164 199,210 239,280 l 23,40 -28,-35 c -15,-19 -109,-118 -209,-220 -100,-102 -202,-215 -228,-252 -81.00001,-113 -125.00001,-227 -141.00001,-358 l -6,-45 30,62 c 39,85 99.00001,160 216.00001,273 116,111 258,226 440,356 317,227 461,408 525,664 28,110 23,287 -11,395 -55,173 -173,331 -297,398 -66,35 -300,97 -253,67 z m -593.00001,-806 c -3,-3 -12,-4 -19,-1 -8,3 -5,6 6,6 11,1 17,-2 13,-5 z m 163.00001,-724 c -8,-5 -19,-10 -25,-10 -5,0 -3,5 5,10 8,5 20,10 25,10 6,0 3,-5 -5,-10 z"
             inkscape:connector-curvature="0" />
          <path
             id="path34"
             d="m 825.40759,3198.1353 c 7,-3 16,-2 19,1 4,3 -2,6 -13,5 -11,0 -14,-3 -6,-6 z"
             inkscape:connector-curvature="0" />
          <path
             id="path36"
             d="m -16.592408,3179.1353 c -32,-8 -85.000002,-28 -117.000002,-45 -190,-102 -309,-377 -270,-628 32,-203 118,-360 295,-536 129.000002,-128 210,-186 408,-291 222,-119 306,-172 383,-245 70,-67 121,-143 136,-203 6,-29 7,-28 8,13 2,90 -51,232 -123,330 -41,55 -146,160 -146,145 0,-5 36,-52 80,-104 74,-87 140,-198 155,-260 5,-23 4,-23 -11,4 -46,82 -234,221 -434,321 -63,31 -200,131 -200,146 0,5 -6,9 -13,9 -15,0 -170.999998,152 -223.999998,218 -21.000002,26 -46.000002,54 -55.000002,63 -10,9 -18,21 -18,28 0,6 -3,11 -8,11 -4,0 -13,15 -21,33 -8,17 -18,34 -21,37 -13,9 -70,116 -70,130 0,7 -7,21 -15,30 -17,19 -43,149 -46,230 -1,30 -7,61 -12,68 -24,31 18,219 60,268 12,15 23,31 23,36 0,13 99,108 124,119 12,5 36,18 55.000002,30 18,11 35,18 38,16 2,-3 -20,-29 -50.000002,-59 -86,-86 -157,-252 -157,-367 0,-41 26,-140 41,-156 6,-5 3,10 -6,34 -65,184 63,474 247.000002,561 68,32 57,37 -36,14 z m -332.000002,-704 c 24,-92 105,-254 171,-341 73,-97 227.000002,-253 338,-341 48,-38 87,-72 87,-74 0,-6 -109,65 -186.999998,122 -215.000002,159 -358.000002,346 -425.000002,559 -23,71 -34,246 -22,331 8,57 9,54 15,-66 3,-69 14,-154 23,-190 z"
             inkscape:connector-curvature="0" />
          <path
             id="path38"
             d="m 1843.4076,3082.1353 c 3,-10 9,-15 12,-12 3,3 0,11 -7,18 -10,9 -11,8 -5,-6 z"
             inkscape:connector-curvature="0" />
          <path
             id="path40"
             d="m 1868.4076,3009.1353 c 0,-11 3,-14 6,-6 3,7 2,16 -1,19 -3,4 -6,-2 -5,-13 z"
             inkscape:connector-curvature="0" />
          <path
             id="path42"
             d="m 1880.4076,2935.1353 c 0,-30 2,-43 4,-27 2,15 2,39 0,55 -2,15 -4,2 -4,-28 z"
             inkscape:connector-curvature="0" />
          <path
             id="path44"
             d="m 1642.4076,2921.1353 c -13,-13 -25,-22 -28,-20 -8,9 10,-93 22,-116 l 12,-25 -20,24 c -14,15 -21,37 -21,65 -1,33 -3,38 -11,23 -36,-62 85,-194 154,-168 30,12 37,29 37,91 0,121 -80,191 -145,126 z m 100,-30 c 17,-26 29,-108 21,-140 -13,-51 -106,-31 -112,25 -1,13 -5,42 -9,65 -6,36 -4,43 19,61 30,24 61,20 81,-11 z"
             inkscape:connector-curvature="0" />
          <path
             id="path46"
             d="m 605.40759,2923.1353 c -16,-5 -28,-16 -28,-25 0,-8 -12,-30 -26,-48 -28,-37 -37,-97 -23,-149 7,-25 6,-28 -11,-23 -12,3 -26,-3 -37,-17 l -18,-21 23,19 c 13,11 22,14 22,7 0,-8 5,-9 19,-2 10,6 21,7 25,3 4,-3 -8,-12 -26,-19 -28,-11 -29,-12 -5,-8 15,3 35,1 45,-4 10,-5 25,-5 37,0 18,8 18,9 -3,5 -19,-4 -26,2 -37,27 -25,63 -28,97 -9,118 18,20 54,26 54,10 0,-6 12,-9 28,-8 21,2 26,-2 24,-15 -2,-10 2,-18 8,-18 6,0 8,5 4,12 -5,7 -2,9 7,6 8,-3 25,3 38,13 19,16 20,19 6,19 -14,0 -15,3 -5,15 7,9 8,15 2,15 -12,0 -24,-29 -16,-41 3,-5 -4,-9 -15,-9 -12,0 -21,5 -21,10 0,6 -14,10 -31,10 -19,0 -28,4 -23,11 9,16 -36,1 -60,-20 -15,-13 -13,-5 8,35 16,29 38,57 50,63 20,11 20,11 -3,5 -16,-4 -21,-3 -17,5 4,6 13,11 21,11 8,0 17,5 20,10 3,6 5,10 3,9 -2,0 -15,-5 -30,-11 z"
             inkscape:connector-curvature="0" />
          <path
             id="path48"
             d="m -260.59241,2889.1353 c 0,-33 2,-36 9,-16 5,14 5,30 0,40 -7,12 -9,5 -9,-24 z"
             inkscape:connector-curvature="0" />
          <path
             id="path50"
             d="m 1081.4076,2910.1353 c 11,-8 24,-15 29,-15 4,0 5,-4 2,-10 -3,-5 -2,-10 3,-10 6,0 12,7 16,15 6,16 -22,35 -51,35 -17,-1 -17,-2 1,-15 z"
             inkscape:connector-curvature="0" />
          <path
             id="path52"
             d="m 637.40759,2911.1353 c 0,-2 9,-6 20,-9 11,-3 18,-1 14,4 -5,9 -34,13 -34,5 z"
             inkscape:connector-curvature="0" />
          <path
             id="path54"
             d="m 692.40759,2894.1353 c -3,-4 1,-10 7,-13 7,-4 3,-4 -10,-2 -13,2 -20,0 -16,-6 4,-5 19,-7 35,-4 15,3 31,1 34,-4 3,-6 14,-10 23,-10 13,0 13,2 -4,14 -17,14 -11,15 58,12 43,-2 84,-9 92,-15 22,-18 1,-58 -34,-66 -16,-3 -36,-15 -46,-26 -18,-20 -50,-27 -38,-7 4,7 3,8 -4,4 -7,-4 -12,-1 -12,8 0,9 -4,16 -10,16 -15,0 10,-48 28,-55 10,-3 23,2 32,13 8,11 34,27 57,37 42,19 55,39 46,75 -3,12 -17,21 -37,25 -55,9 -196,12 -201,4 z"
             inkscape:connector-curvature="0" />
          <path
             id="path56"
             d="m 1002.4076,2885.1353 c -8.00001,-13 20,-24 36,-15 8,6 7,10 -2,16 -18,11 -26,11 -34,-1 z"
             inkscape:connector-curvature="0" />
          <path
             id="path58"
             d="m 1137.4076,2885.1353 c 0,-5 13,-16 29,-24 52,-27 123,-109 157,-180 19,-39 34,-78 34,-88 0,-13 8,-18 30,-18 17,0 30,2 30,5 0,14 -35,71 -49,82 -9,6 -13,15 -9,18 17,18 -88,137 -166,189 -41,28 -56,32 -56,16 z"
             inkscape:connector-curvature="0" />
          <path
             id="path60"
             d="m -283.59241,2850.1353 c 0,-16 0,-38 1,-49 1,-12 -3,-16 -10,-11 -21,13 -8,-182 14,-230 26,-55 78,-124 94,-125 6,0 12,-3 12,-8 0,-4 15,-14 33,-22 64.000002,-30 218.000002,-13 292,32 17,10 38,18 47,18 9,0 18,5 20,11 2,6 15,12 30,12 14,1 24,5 22,8 -5,9 25,21 36,14 4,-3 10,2 14,10 4,11 -6,10 -47,-7 -178.999998,-73 -239.999998,-89 -323.999998,-86 -73.000002,3 -85.000002,6 -120.000002,33 -49,39 -99,138 -109,212 -4,32 -2,82 4,115 7,36 7,68 2,81 -8,20 -9,20 -11,-8 z"
             inkscape:connector-curvature="0" />
          <path
             id="path62"
             d="m 1089.4076,2843.1353 c -15,-18 -8,-77 12,-96 9,-9 16,-11 16,-5 0,7 -4,15 -10,18 -5,3 -10,22 -10,41 0,29 4,34 23,34 18,0 19,2 7,10 -20,13 -26,12 -38,-2 z"
             inkscape:connector-curvature="0" />
          <path
             id="path64"
             d="m 1868.4076,2839.1353 c 0,-11 3,-14 6,-6 3,7 2,16 -1,19 -3,4 -6,-2 -5,-13 z"
             inkscape:connector-curvature="0" />
          <path
             id="path66"
             d="m 643.40759,2830.1353 c -11,-8 -15,-15 -9,-15 7,0 15,5 18,10 3,6 11,10 16,10 6,0 7,-4 4,-10 -3,-5 -1,-10 5,-10 13,0 8,22 -6,27 -5,1 -18,-4 -28,-12 z"
             inkscape:connector-curvature="0" />
          <path
             id="path68"
             d="m 772.40759,2825.1353 c -3,-5 -1,-10 4,-10 6,0 11,5 11,10 0,6 -2,10 -4,10 -3,0 -8,-4 -11,-10 z"
             inkscape:connector-curvature="0" />
          <path
             id="path70"
             d="m 1137.4076,2796.1353 c 5,-11 15,-23 20,-26 6,-4 8,-11 4,-16 -4,-6 -11,-6 -20,2 -17,14 -19,-2 -1,-20 10,-11 9,-12 -1,-6 -8,4 -13,2 -11,-6 4,-30 -2,-39 -23,-39 -18,0 -20,2 -8,10 12,8 12,10 -2,15 -10,4 -20,15 -23,26 -6,17 -8,17 -21,4 -13,-13 -12,-17 6,-35 11,-11 20,-24 20,-29 0,-5 10,-7 23,-4 21,5 21,5 3,-9 -17,-13 -17,-15 -2,-21 23,-9 20,-25 -6,-29 -17,-2 -22,-9 -20,-25 3,-21 -1,-23 -45,-25 l -48.00001,-1 44.00001,-4 c 34,-3 47,0 62,16 11,12 26,18 35,14 8,-3 23,3 34,15 16,17 17,21 4,26 -9,3 -12,1 -9,-4 3,-6 2,-10 -4,-10 -6,0 -15,9 -21,20 -8,15 -5,30 16,71 25,46 29,50 40,34 12,-16 13,-16 11,4 -1,11 -6,21 -11,21 -6,0 -5,5 2,12 7,7 12,17 12,23 0,5 -5,2 -11,-7 -13,-24 -26,-23 -34,2 -3,11 -11,20 -16,20 -6,0 -6,-7 1,-19 z m 0,-191 c 0,-5 -4,-10 -10,-10 -5,0 -10,5 -10,10 0,6 5,10 10,10 6,0 10,-4 10,-10 z"
             inkscape:connector-curvature="0" />
          <path
             id="path72"
             d="m 957.40759,2786.1353 c 0,-5 -10,-7 -22,-5 l -23,5 22,-12 c 24,-13 58,-5 48,11 -8,12 -25,13 -25,1 z"
             inkscape:connector-curvature="0" />
          <path
             id="path74"
             d="m 634.40759,2778.1353 c -4,-3 -7,-11 -7,-17 0,-6 5,-5 12,2 6,6 9,14 7,17 -3,3 -9,2 -12,-2 z"
             inkscape:connector-curvature="0" />
          <path
             id="path76"
             d="m 597.40759,2755.1353 c -8,-5 -12,-12 -9,-15 4,-3 12,1 19,10 14,17 11,19 -10,5 z"
             inkscape:connector-curvature="0" />
          <path
             id="path78"
             d="m 683.40759,2746.1353 c -4,-7 -5,-15 -2,-18 9,-9 19,4 14,18 -4,11 -6,11 -12,0 z"
             inkscape:connector-curvature="0" />
          <path
             id="path80"
             d="m 562.40759,2734.1353 c -4,-6 -5,-12 -2,-15 2,-3 7,2 10,11 7,17 1,20 -8,4 z"
             inkscape:connector-curvature="0" />
          <path
             id="path82"
             d="m -100.59241,2703.1353 c -29,-32 -42,-71 -42,-132 0,-73 16,-90 79.000002,-87 36,2 137,111 103,111 -5,0 -15,-11 -22,-25 -7,-14 -14.9999996,-23 -16.99999958,-21 -3.00000002,2 2.99999998,19 11.99999958,37 11,21 15,44 11,68 -4,25 -2,31 4,21 5,-8 10,-23 10,-32 0,-10 5,-18 10,-18 25,0 -6,55 -45.9999996,81 -39.0000004,25 -76.0000004,24 -102.0000024,-3 z m 98.0000024,-30 c 11,-12 15.9999996,-24 12,-27 -5,-3 -9.99999998,-13 -9.99999998,-21 -8.00000002,-86 -11.00000042,-94 -36.00000042,-113 -14,-10 -26,-14 -26,-8 0,6 -7,8 -15,5 -25.000002,-10 -45.000002,16 -45.000002,56 0,39 16,96 33.000002,118 15,19 64,14 87.0000004,-10 z"
             inkscape:connector-curvature="0" />
          <path
             id="path84"
             d="m 492.40759,2705.1353 c -19,-8 -19,-9 3,-9 12,-1 22,4 22,9 0,6 -1,10 -2,9 -2,0 -12,-4 -23,-9 z"
             inkscape:connector-curvature="0" />
          <path
             id="path86"
             d="m 695.40759,2708.1353 c 7,-3 16,-2 19,1 4,3 -2,6 -13,5 -11,0 -14,-3 -6,-6 z"
             inkscape:connector-curvature="0" />
          <path
             id="path88"
             d="m 1037.4076,2690.1353 c 0,-8 4,-15 10,-15 5,0 7,7 4,15 -4,8 -8,15 -10,15 -2,0 -4,-7 -4,-15 z"
             inkscape:connector-curvature="0" />
          <path
             id="path90"
             d="m 624.40759,2683.1353 c -8,-5 -7,-8 3,-9 35,-4 90,3 90,11 0,9 -79,6 -93,-2 z"
             inkscape:connector-curvature="0" />
          <path
             id="path92"
             d="m 1277.4076,2683.1353 c 0,-4 4,-8 9,-8 6,0 12,4 15,8 3,5 -1,9 -9,9 -8,0 -15,-4 -15,-9 z"
             inkscape:connector-curvature="0" />
          <path
             id="path94"
             d="m 677.40759,2657.1353 c 0,-1 10,-7 23,-12 21,-8 21,-9 -5,-9 -15,-1 -30,4 -33,9 -3,6 -11,10 -17,10 -6,0 -8,-3 -4,-7 4,-4 -10,-16 -31,-25 -26,-12 -30,-16 -13,-13 59,10 190,8 190,-2 0,-5 -30,-16 -68,-25 -37,-9 -80,-22 -97,-29 -16,-7 -50,-20 -74,-29 -25,-9 -47,-22 -49,-30 -3,-9 1,-11 14,-6 82,33 234,78 300,89 l 79,14 -55,16 c -30,8 -67,18 -82,21 -16,4 -28,12 -28,19 0,6 -11,12 -25,12 -14,0 -25,-1 -25,-3 z"
             inkscape:connector-curvature="0" />
          <path
             id="path96"
             d="m 1282.4076,2645.1353 c 2,-8 6,-24 10,-35 7,-18 5,-17 -20,5 -16,14 -25,19 -21,13 10,-18 -15,-16 -40,1 -19,14 -20,13 -18,-7 1,-12 3,-25 3,-29 1,-5 5,-8 11,-8 5,0 7,7 3,16 -5,14 -3,15 16,4 27,-14 23,-20 -21,-30 -28,-6 -25,-7 22,-7 30,0 49,2 43,4 -7,3 -13,12 -13,20 0,12 3,13 15,3 8,-6 20,-8 26,-4 9,5 10,2 6,-9 -3,-10 -3,-17 2,-17 5,0 11,9 14,20 3,11 1,20 -5,20 -6,0 -8,12 -4,28 3,15 3,21 0,15 -3,-7 -9,-13 -14,-13 -5,0 -10,6 -13,13 -2,6 -3,5 -2,-3 z"
             inkscape:connector-curvature="0" />
          <path
             id="path98"
             d="m 1214.4076,2644.1353 c 7,-7 15,-10 18,-7 3,3 -2,9 -12,12 -14,6 -15,5 -6,-5 z"
             inkscape:connector-curvature="0" />
          <path
             id="path100"
             d="m 1672.4076,2610.1353 c -16,-8 -23,-14 -14,-15 8,0 24,7 35,15 23,18 18,18 -21,0 z"
             inkscape:connector-curvature="0" />
          <path
             id="path102"
             d="m -461.59241,2589.1353 c 0,-11 3,-14 6,-6 3,7 2,16 -1,19 -3,4 -6,-2 -5,-13 z"
             inkscape:connector-curvature="0" />
          <path
             id="path104"
             d="m 266.40759,2565.1353 c -7,-22 -13,-40 -14,-40 -1,0 -42,-14 -91,-31 -49,-17 -106.999998,-35 -128.999998,-40 -32.99999958,-7 -28.9999996,-7 20,-3 33,3 76.999998,14 97.999998,24 21,10 51,21 66,25 36,8 57,31 64,73 9,45 0,40 -14,-8 z"
             inkscape:connector-curvature="0" />
          <path
             id="path106"
             d="m 1157.4076,2580.1353 c -7,-9 -8,-15 -2,-15 5,0 12,7 16,15 3,8 4,15 2,15 -2,0 -9,-7 -16,-15 z"
             inkscape:connector-curvature="0" />
          <path
             id="path108"
             d="m 1517.4076,2579.1353 -95,-13 85,4 c 47,2 96,8 110,14 31,12 20,12 -100,-5 z"
             inkscape:connector-curvature="0" />
          <path
             id="path110"
             d="m 477.40759,2467.1353 c 0,-5 3,-12 8,-16 4,-4 7,-20 7,-34 0,-17 5,-26 13,-24 22,4 82,-26 82,-42 0,-37 -51,-54 -64,-21 -6,16 -59,10 -64,-6 -3,-6 -10,-5 -20,3 -8,7 -18,12 -21,11 -3,-2 -6,11 -6,27 0,35 -16,53 -38,44 -18,-6 -24,-24 -9,-24 5,0 16,-19 25,-41 12,-30 21,-40 32,-36 19,8 21,-34 2,-66 -18,-32 -15,-55 16,-114 25,-48 61,-82 74,-70 2,3 -4,10 -15,16 -27,15 -64,97 -58,129 11,55 39,123 46,112 6,-9 9,-9 13,1 4,11 8,10 19,-4 8,-11 23,-17 33,-15 13,2 23,-5 30,-19 5,-12 19,-24 31,-27 12,-3 29,-18 39,-33 24,-37 51,-63 59,-56 3,4 6,1 6,-6 0,-8 7,-11 15,-7 8,3 15,1 15,-4 0,-6 8,-10 18,-10 9,0 26,-7 36,-15 19,-15 19,-16 -2,-59 -12,-24 -22,-48 -22,-54 0,-5 -14,-15 -32,-21 -40,-14 -30,-25 13,-13 26,6 36,15 43,41 5,19 20,44 33,57 13,13 23,27 23,33 0,11 -66,51 -84,51 -26,0 -66,28 -89,61 -12,19 -32,36 -42,38 -11,2 -27,11 -36,20 -16,17 -22,51 -9,51 4,0 5,11 2,26 -3,18 -17,31 -48,45 -24,12 -43,24 -43,27 2,15 -14,52 -22,52 -5,0 -9,-4 -9,-8 z"
             inkscape:connector-curvature="0" />
          <path
             id="path112"
             d="m 1017.4076,2455.1353 c 0,-5 7,-7 15,-4 8,4 15,8 15,10 0,2 -7,4 -15,4 -8,0 -15,-4 -15,-10 z"
             inkscape:connector-curvature="0" />
          <path
             id="path114"
             d="m 392.40759,2445.1353 c -3,-6 1,-7 9,-4 18,7 21,14 7,14 -6,0 -13,-4 -16,-10 z"
             inkscape:connector-curvature="0" />
          <path
             id="path116"
             d="m 449.40759,2443.1353 c 3,-7 13,-15 24,-17 16,-3 17,-1 5,13 -16,19 -34,21 -29,4 z"
             inkscape:connector-curvature="0" />
          <path
             id="path118"
             d="m 313.40759,2388.1353 c -6,-14 -5,-15 5,-6 7,7 10,15 7,18 -3,3 -9,-2 -12,-12 z"
             inkscape:connector-curvature="0" />
          <path
             id="path120"
             d="m 1377.4076,2386.1353 c 0,-11 26,-22 34,-14 3,3 3,10 0,14 -7,12 -34,11 -34,0 z"
             inkscape:connector-curvature="0" />
          <path
             id="path122"
             d="m 261.40759,2343.1353 -29,-33 33,29 c 30,28 37,36 29,36 -2,0 -16,-15 -33,-32 z"
             inkscape:connector-curvature="0" />
          <path
             id="path124"
             d="m 281.40759,2333.1353 -29,-33 33,29 c 17,17 32,31 32,33 0,8 -8,1 -36,-29 z"
             inkscape:connector-curvature="0" />
          <path
             id="path126"
             d="m 1302.4076,2345.1353 c 3,-5 8,-10 11,-10 2,0 4,5 4,10 0,6 -5,10 -11,10 -5,0 -7,-4 -4,-10 z"
             inkscape:connector-curvature="0" />
          <path
             id="path128"
             d="m 296.40759,2308.1353 c -13,-16 -12,-17 4,-4 16,13 21,21 13,21 -2,0 -10,-8 -17,-17 z"
             inkscape:connector-curvature="0" />
          <path
             id="path130"
             d="m 195.40759,2262.1353 c -32,-52 -48,-110 -44,-160 5,-44 44,-147 57,-147 5,0 9,-6 9,-13 0,-13 84,-98 131,-133 122,-90 190,-145 238,-193 60,-60 111,-118 111,-126 0,-3 0,-8 0,-12 0,-5 12,-16 26,-27 l 26,-18 -12,23 c -52,99 -156,207 -312,322 -115,87 -207,172 -196,183 4,3 11,-3 17,-14 21,-39 234,-192 248,-178 2,2 -40,35 -94,72 -110,77 -182,144 -208,194 -28,54 -22,128 14,200 33,65 35,70 24,70 -5,0 -20,-19 -35,-43 z m 22,-277 c 6,-11 8,-20 6,-20 -3,0 -10,9 -16,20 -6,11 -8,20 -6,20 3,0 10,-9 16,-20 z"
             inkscape:connector-curvature="0" />
          <path
             id="path132"
             d="m 337.40759,2255.1353 c 0,-5 5,-10 11,-10 5,0 7,5 4,10 -3,6 -8,10 -11,10 -2,0 -4,-4 -4,-10 z"
             inkscape:connector-curvature="0" />
          <path
             id="path134"
             d="m 307.40759,2215.1353 c 0,-18 51,-113 88,-164 20,-27 65,-72 100,-102 67,-55 167,-112 178,-101 4,3 16,1 28,-5 11,-6 39,-13 61,-15 22,-3 55,-8 73,-13 17,-5 32,-5 32,0 0,4 -30,13 -67,20 -38,7 -79,17 -93,22 -14,5 -27,8 -29,6 -2,-2 -7,7 -12,20 -5,12 -14,22 -20,22 -8,0 -7,-5 2,-16 11,-14 9,-15 -18,-11 -39,6 -103,56 -103,80 0,10 -5,15 -10,12 -15,-9 -42,15 -36,31 3,8 0,11 -8,8 -24,-9 -143,154 -132,183 3,8 1,11 -4,8 -6,-3 -10,1 -10,9 0,9 -4,16 -10,16 -5,0 -10,-5 -10,-10 z"
             inkscape:connector-curvature="0" />
          <path
             id="path136"
             d="m 524.40759,2025.1353 c 3,-11 7,-20 9,-20 2,0 4,9 4,20 0,11 -4,20 -9,20 -5,0 -7,-9 -4,-20 z"
             inkscape:connector-curvature="0" />
          <path
             id="path138"
             d="m 677.40759,1930.1353 c -7,-9 -8,-15 -2,-15 5,0 12,7 16,15 3,8 4,15 2,15 -2,0 -9,-7 -16,-15 z"
             inkscape:connector-curvature="0" />
          <path
             id="path140"
             d="m 607.40759,1846.1353 c 0,-14 29,-41 43,-41 7,0 19,5 27,11 13,9 12,10 -2,5 -24,-7 -48,3 -48,20 0,8 -4,14 -10,14 -5,0 -10,-4 -10,-9 z"
             inkscape:connector-curvature="0" />
          <path
             id="path142"
             d="m 827.40759,1720.1353 c 0,-9 5,-15 11,-13 6,2 11,8 11,13 0,5 -5,11 -11,13 -6,2 -11,-4 -11,-13 z"
             inkscape:connector-curvature="0" />
          <path
             id="path144"
             d="m 837.40759,1679.1353 c 0,-8 5,-12 10,-9 6,4 8,11 5,16 -9,14 -15,11 -15,-7 z"
             inkscape:connector-curvature="0" />
        </g>
      </g>
      <text
         transform="scale(0.86093848,-1.1615232)"
         id="text69"
         y="86.314384"
         x="5250.249"
         style="font-style:normal;font-variant:normal;font-weight:normal;font-stretch:normal;font-size:1701.62px;line-height:1.25;font-family:'Freestyle Script';-inkscape-font-specification:'Freestyle Script';letter-spacing:0px;word-spacing:0px;fill:#000000;fill-opacity:1;stroke:none;stroke-width:42.5405"
         xml:space="preserve"><tspan
           style="font-style:normal;font-variant:normal;font-weight:normal;font-stretch:normal;font-family:'Freestyle Script';-inkscape-font-specification:'Freestyle Script';stroke-width:42.5405"
           y="86.314384"
           x="5250.249"
           id="tspan67"
           sodipodi:role="line">World Folklore Festival</tspan></text>
    </g>
  </g>
</svg>
